<mxfile host="app.diagrams.net" modified="2020-11-15T05:46:05.737Z" agent="5.0 (Windows NT 10.0; Win64; x64) AppleWebKit/537.36 (KHTML, like Gecko) Chrome/86.0.4240.193 Safari/537.36 Edg/86.0.622.68" etag="zfCNuJPdcwJmh1J5YHRG" version="13.9.8" type="github">
  <diagram id="UxYcNDaZcgAWw7PneW3B" name="Page-1">
    <mxGraphModel dx="2523" dy="979" grid="1" gridSize="10" guides="1" tooltips="1" connect="1" arrows="1" fold="1" page="1" pageScale="1" pageWidth="850" pageHeight="1100" math="0" shadow="0">
      <root>
        <mxCell id="0" />
        <mxCell id="1" parent="0" />
        <mxCell id="YMQGmcqetLwAoUpaAqa0-1" value="Tiva TM4C123G&lt;br style=&quot;font-size: 21px;&quot;&gt;Development Board" style="rounded=0;whiteSpace=wrap;html=1;rotation=-90;fontSize=21;" vertex="1" parent="1">
          <mxGeometry x="-480" y="629.86" width="610" height="210" as="geometry" />
        </mxCell>
        <mxCell id="YMQGmcqetLwAoUpaAqa0-149" style="edgeStyle=orthogonalEdgeStyle;rounded=0;orthogonalLoop=1;jettySize=auto;html=1;exitX=0;exitY=0.5;exitDx=0;exitDy=0;entryX=0.18;entryY=0.995;entryDx=0;entryDy=0;entryPerimeter=0;fontSize=13;" edge="1" parent="1" source="YMQGmcqetLwAoUpaAqa0-3" target="YMQGmcqetLwAoUpaAqa0-1">
          <mxGeometry relative="1" as="geometry" />
        </mxCell>
        <mxCell id="YMQGmcqetLwAoUpaAqa0-3" value="PL0" style="text;html=1;strokeColor=none;fillColor=none;align=center;verticalAlign=middle;whiteSpace=wrap;rounded=0;fontSize=16;" vertex="1" parent="1">
          <mxGeometry x="-40" y="920" width="30" height="20" as="geometry" />
        </mxCell>
        <mxCell id="YMQGmcqetLwAoUpaAqa0-150" style="edgeStyle=orthogonalEdgeStyle;rounded=0;orthogonalLoop=1;jettySize=auto;html=1;exitX=0;exitY=0.5;exitDx=0;exitDy=0;entryX=0.147;entryY=1.006;entryDx=0;entryDy=0;entryPerimeter=0;fontSize=13;" edge="1" parent="1" source="YMQGmcqetLwAoUpaAqa0-4" target="YMQGmcqetLwAoUpaAqa0-1">
          <mxGeometry relative="1" as="geometry" />
        </mxCell>
        <mxCell id="YMQGmcqetLwAoUpaAqa0-4" value="PL1" style="text;html=1;strokeColor=none;fillColor=none;align=center;verticalAlign=middle;whiteSpace=wrap;rounded=0;fontSize=16;" vertex="1" parent="1">
          <mxGeometry x="-40" y="940" width="30" height="20" as="geometry" />
        </mxCell>
        <mxCell id="YMQGmcqetLwAoUpaAqa0-151" style="edgeStyle=orthogonalEdgeStyle;rounded=0;orthogonalLoop=1;jettySize=auto;html=1;exitX=0;exitY=0.5;exitDx=0;exitDy=0;entryX=0.114;entryY=1.017;entryDx=0;entryDy=0;entryPerimeter=0;fontSize=13;" edge="1" parent="1" source="YMQGmcqetLwAoUpaAqa0-5" target="YMQGmcqetLwAoUpaAqa0-1">
          <mxGeometry relative="1" as="geometry" />
        </mxCell>
        <mxCell id="YMQGmcqetLwAoUpaAqa0-5" value="PL2" style="text;html=1;strokeColor=none;fillColor=none;align=center;verticalAlign=middle;whiteSpace=wrap;rounded=0;fontSize=16;" vertex="1" parent="1">
          <mxGeometry x="-40" y="960" width="30" height="20" as="geometry" />
        </mxCell>
        <mxCell id="YMQGmcqetLwAoUpaAqa0-152" style="edgeStyle=orthogonalEdgeStyle;rounded=0;orthogonalLoop=1;jettySize=auto;html=1;exitX=0;exitY=0.5;exitDx=0;exitDy=0;entryX=0.082;entryY=1.003;entryDx=0;entryDy=0;entryPerimeter=0;fontSize=13;" edge="1" parent="1" source="YMQGmcqetLwAoUpaAqa0-6" target="YMQGmcqetLwAoUpaAqa0-1">
          <mxGeometry relative="1" as="geometry" />
        </mxCell>
        <mxCell id="YMQGmcqetLwAoUpaAqa0-6" value="PL3" style="text;html=1;strokeColor=none;fillColor=none;align=center;verticalAlign=middle;whiteSpace=wrap;rounded=0;fontSize=16;" vertex="1" parent="1">
          <mxGeometry x="-40" y="980" width="30" height="20" as="geometry" />
        </mxCell>
        <mxCell id="YMQGmcqetLwAoUpaAqa0-44" style="edgeStyle=orthogonalEdgeStyle;rounded=0;orthogonalLoop=1;jettySize=auto;html=1;exitX=1;exitY=0.5;exitDx=0;exitDy=0;entryX=0.312;entryY=-0.006;entryDx=0;entryDy=0;entryPerimeter=0;fontSize=16;" edge="1" parent="1" source="YMQGmcqetLwAoUpaAqa0-8" target="YMQGmcqetLwAoUpaAqa0-1">
          <mxGeometry relative="1" as="geometry" />
        </mxCell>
        <mxCell id="YMQGmcqetLwAoUpaAqa0-8" value="PD4" style="text;html=1;strokeColor=none;fillColor=none;align=center;verticalAlign=middle;whiteSpace=wrap;rounded=0;fontSize=16;" vertex="1" parent="1">
          <mxGeometry x="-360" y="839.86" width="40" height="20" as="geometry" />
        </mxCell>
        <mxCell id="YMQGmcqetLwAoUpaAqa0-36" value="Bread board" style="rounded=0;whiteSpace=wrap;html=1;fontSize=16;rotation=-90;labelBackgroundColor=none;" vertex="1" parent="1">
          <mxGeometry x="160" y="674.86" width="620" height="120" as="geometry" />
        </mxCell>
        <mxCell id="YMQGmcqetLwAoUpaAqa0-54" value="" style="curved=1;endArrow=classic;html=1;fontSize=16;exitX=0.5;exitY=1;exitDx=0;exitDy=0;" edge="1" parent="1" source="YMQGmcqetLwAoUpaAqa0-8">
          <mxGeometry width="50" height="50" relative="1" as="geometry">
            <mxPoint x="390" y="869.86" as="sourcePoint" />
            <mxPoint x="440" y="819.86" as="targetPoint" />
            <Array as="points">
              <mxPoint x="330" y="889.86" />
              <mxPoint x="390" y="819.86" />
            </Array>
          </mxGeometry>
        </mxCell>
        <mxCell id="YMQGmcqetLwAoUpaAqa0-55" value="Potentiometer" style="text;html=1;strokeColor=none;fillColor=none;align=center;verticalAlign=middle;whiteSpace=wrap;rounded=0;labelBackgroundColor=none;fontSize=9;" vertex="1" parent="1">
          <mxGeometry x="450" y="809.86" width="40" height="20" as="geometry" />
        </mxCell>
        <mxCell id="YMQGmcqetLwAoUpaAqa0-56" value="ULN2803" style="rounded=0;whiteSpace=wrap;html=1;labelBackgroundColor=none;fontSize=11;rotation=-90;" vertex="1" parent="1">
          <mxGeometry x="180" y="275" width="180" height="70" as="geometry" />
        </mxCell>
        <mxCell id="YMQGmcqetLwAoUpaAqa0-138" style="edgeStyle=orthogonalEdgeStyle;rounded=0;orthogonalLoop=1;jettySize=auto;html=1;exitX=0;exitY=0.5;exitDx=0;exitDy=0;entryX=0.899;entryY=-0.024;entryDx=0;entryDy=0;entryPerimeter=0;fontSize=9;" edge="1" parent="1" source="YMQGmcqetLwAoUpaAqa0-57" target="YMQGmcqetLwAoUpaAqa0-137">
          <mxGeometry relative="1" as="geometry">
            <Array as="points">
              <mxPoint x="10" y="230" />
              <mxPoint x="10" y="599" />
            </Array>
          </mxGeometry>
        </mxCell>
        <mxCell id="YMQGmcqetLwAoUpaAqa0-57" value="A1" style="text;html=1;strokeColor=none;fillColor=none;align=center;verticalAlign=middle;whiteSpace=wrap;rounded=0;labelBackgroundColor=none;fontSize=9;" vertex="1" parent="1">
          <mxGeometry x="185" y="220" width="40" height="20" as="geometry" />
        </mxCell>
        <mxCell id="YMQGmcqetLwAoUpaAqa0-139" style="edgeStyle=orthogonalEdgeStyle;rounded=0;orthogonalLoop=1;jettySize=auto;html=1;exitX=0;exitY=0.5;exitDx=0;exitDy=0;entryX=0.75;entryY=0;entryDx=0;entryDy=0;fontSize=9;" edge="1" parent="1" source="YMQGmcqetLwAoUpaAqa0-58" target="YMQGmcqetLwAoUpaAqa0-137">
          <mxGeometry relative="1" as="geometry">
            <Array as="points">
              <mxPoint x="30" y="250" />
              <mxPoint x="30" y="612" />
            </Array>
          </mxGeometry>
        </mxCell>
        <mxCell id="YMQGmcqetLwAoUpaAqa0-58" value="B1" style="text;html=1;strokeColor=none;fillColor=none;align=center;verticalAlign=middle;whiteSpace=wrap;rounded=0;labelBackgroundColor=none;fontSize=9;" vertex="1" parent="1">
          <mxGeometry x="185" y="240" width="40" height="20" as="geometry" />
        </mxCell>
        <mxCell id="YMQGmcqetLwAoUpaAqa0-140" style="edgeStyle=orthogonalEdgeStyle;rounded=0;orthogonalLoop=1;jettySize=auto;html=1;exitX=0;exitY=0.5;exitDx=0;exitDy=0;entryX=0.623;entryY=0.045;entryDx=0;entryDy=0;entryPerimeter=0;fontSize=9;" edge="1" parent="1" source="YMQGmcqetLwAoUpaAqa0-59" target="YMQGmcqetLwAoUpaAqa0-137">
          <mxGeometry relative="1" as="geometry">
            <Array as="points">
              <mxPoint x="50" y="270" />
              <mxPoint x="50" y="624" />
            </Array>
          </mxGeometry>
        </mxCell>
        <mxCell id="YMQGmcqetLwAoUpaAqa0-59" value="C1" style="text;html=1;strokeColor=none;fillColor=none;align=center;verticalAlign=middle;whiteSpace=wrap;rounded=0;labelBackgroundColor=none;fontSize=9;" vertex="1" parent="1">
          <mxGeometry x="185" y="260" width="40" height="20" as="geometry" />
        </mxCell>
        <mxCell id="YMQGmcqetLwAoUpaAqa0-141" style="edgeStyle=orthogonalEdgeStyle;rounded=0;orthogonalLoop=1;jettySize=auto;html=1;exitX=0;exitY=0.5;exitDx=0;exitDy=0;entryX=0.5;entryY=0;entryDx=0;entryDy=0;fontSize=9;" edge="1" parent="1" source="YMQGmcqetLwAoUpaAqa0-60" target="YMQGmcqetLwAoUpaAqa0-137">
          <mxGeometry relative="1" as="geometry">
            <Array as="points">
              <mxPoint x="70" y="290" />
              <mxPoint x="70" y="635" />
            </Array>
          </mxGeometry>
        </mxCell>
        <mxCell id="YMQGmcqetLwAoUpaAqa0-60" value="D1" style="text;html=1;strokeColor=none;fillColor=none;align=center;verticalAlign=middle;whiteSpace=wrap;rounded=0;labelBackgroundColor=none;fontSize=9;" vertex="1" parent="1">
          <mxGeometry x="185" y="280" width="40" height="20" as="geometry" />
        </mxCell>
        <mxCell id="YMQGmcqetLwAoUpaAqa0-142" style="edgeStyle=orthogonalEdgeStyle;rounded=0;orthogonalLoop=1;jettySize=auto;html=1;exitX=0;exitY=0.5;exitDx=0;exitDy=0;entryX=0.355;entryY=0.045;entryDx=0;entryDy=0;entryPerimeter=0;fontSize=9;" edge="1" parent="1" source="YMQGmcqetLwAoUpaAqa0-61" target="YMQGmcqetLwAoUpaAqa0-137">
          <mxGeometry relative="1" as="geometry">
            <Array as="points">
              <mxPoint x="100" y="310" />
              <mxPoint x="100" y="648" />
            </Array>
          </mxGeometry>
        </mxCell>
        <mxCell id="YMQGmcqetLwAoUpaAqa0-61" value="A2" style="text;html=1;strokeColor=none;fillColor=none;align=center;verticalAlign=middle;whiteSpace=wrap;rounded=0;labelBackgroundColor=none;fontSize=9;" vertex="1" parent="1">
          <mxGeometry x="185" y="300" width="40" height="20" as="geometry" />
        </mxCell>
        <mxCell id="YMQGmcqetLwAoUpaAqa0-143" style="edgeStyle=orthogonalEdgeStyle;rounded=0;orthogonalLoop=1;jettySize=auto;html=1;exitX=0;exitY=0.5;exitDx=0;exitDy=0;entryX=0.25;entryY=0;entryDx=0;entryDy=0;fontSize=9;" edge="1" parent="1" source="YMQGmcqetLwAoUpaAqa0-62" target="YMQGmcqetLwAoUpaAqa0-137">
          <mxGeometry relative="1" as="geometry">
            <Array as="points">
              <mxPoint x="130" y="330" />
              <mxPoint x="130" y="658" />
            </Array>
          </mxGeometry>
        </mxCell>
        <mxCell id="YMQGmcqetLwAoUpaAqa0-62" value="B2" style="text;html=1;strokeColor=none;fillColor=none;align=center;verticalAlign=middle;whiteSpace=wrap;rounded=0;labelBackgroundColor=none;fontSize=9;" vertex="1" parent="1">
          <mxGeometry x="185" y="320" width="40" height="20" as="geometry" />
        </mxCell>
        <mxCell id="YMQGmcqetLwAoUpaAqa0-145" style="edgeStyle=orthogonalEdgeStyle;rounded=0;orthogonalLoop=1;jettySize=auto;html=1;exitX=0;exitY=0.5;exitDx=0;exitDy=0;entryX=0.117;entryY=-0.093;entryDx=0;entryDy=0;entryPerimeter=0;fontSize=9;" edge="1" parent="1" source="YMQGmcqetLwAoUpaAqa0-63" target="YMQGmcqetLwAoUpaAqa0-137">
          <mxGeometry relative="1" as="geometry">
            <Array as="points">
              <mxPoint x="150" y="350" />
              <mxPoint x="150" y="669" />
              <mxPoint x="453" y="669" />
            </Array>
          </mxGeometry>
        </mxCell>
        <mxCell id="YMQGmcqetLwAoUpaAqa0-63" value="C2" style="text;html=1;strokeColor=none;fillColor=none;align=center;verticalAlign=middle;whiteSpace=wrap;rounded=0;labelBackgroundColor=none;fontSize=9;" vertex="1" parent="1">
          <mxGeometry x="185" y="340" width="40" height="20" as="geometry" />
        </mxCell>
        <mxCell id="YMQGmcqetLwAoUpaAqa0-146" style="edgeStyle=orthogonalEdgeStyle;rounded=0;orthogonalLoop=1;jettySize=auto;html=1;exitX=0;exitY=0.5;exitDx=0;exitDy=0;entryX=0;entryY=0;entryDx=0;entryDy=0;fontSize=9;" edge="1" parent="1" source="YMQGmcqetLwAoUpaAqa0-64" target="YMQGmcqetLwAoUpaAqa0-137">
          <mxGeometry relative="1" as="geometry">
            <Array as="points">
              <mxPoint x="165" y="370" />
              <mxPoint x="165" y="680" />
            </Array>
          </mxGeometry>
        </mxCell>
        <mxCell id="YMQGmcqetLwAoUpaAqa0-64" value="D2" style="text;html=1;strokeColor=none;fillColor=none;align=center;verticalAlign=middle;whiteSpace=wrap;rounded=0;labelBackgroundColor=none;fontSize=9;" vertex="1" parent="1">
          <mxGeometry x="185" y="360" width="40" height="20" as="geometry" />
        </mxCell>
        <mxCell id="YMQGmcqetLwAoUpaAqa0-147" style="edgeStyle=orthogonalEdgeStyle;rounded=0;orthogonalLoop=1;jettySize=auto;html=1;exitX=0;exitY=0.5;exitDx=0;exitDy=0;entryX=0.383;entryY=-0.008;entryDx=0;entryDy=0;entryPerimeter=0;fontSize=9;" edge="1" parent="1" source="YMQGmcqetLwAoUpaAqa0-65" target="YMQGmcqetLwAoUpaAqa0-36">
          <mxGeometry relative="1" as="geometry">
            <Array as="points">
              <mxPoint x="170" y="390" />
              <mxPoint x="170" y="807" />
            </Array>
          </mxGeometry>
        </mxCell>
        <mxCell id="YMQGmcqetLwAoUpaAqa0-65" value="-" style="text;html=1;strokeColor=none;fillColor=none;align=center;verticalAlign=middle;whiteSpace=wrap;rounded=0;labelBackgroundColor=none;fontSize=9;" vertex="1" parent="1">
          <mxGeometry x="185" y="380" width="40" height="20" as="geometry" />
        </mxCell>
        <mxCell id="YMQGmcqetLwAoUpaAqa0-94" value="A1" style="text;html=1;strokeColor=none;fillColor=none;align=center;verticalAlign=middle;whiteSpace=wrap;rounded=0;labelBackgroundColor=none;fontSize=9;" vertex="1" parent="1">
          <mxGeometry x="305" y="220" width="40" height="20" as="geometry" />
        </mxCell>
        <mxCell id="YMQGmcqetLwAoUpaAqa0-95" value="B1" style="text;html=1;strokeColor=none;fillColor=none;align=center;verticalAlign=middle;whiteSpace=wrap;rounded=0;labelBackgroundColor=none;fontSize=9;" vertex="1" parent="1">
          <mxGeometry x="305" y="240" width="40" height="20" as="geometry" />
        </mxCell>
        <mxCell id="YMQGmcqetLwAoUpaAqa0-96" value="C1" style="text;html=1;strokeColor=none;fillColor=none;align=center;verticalAlign=middle;whiteSpace=wrap;rounded=0;labelBackgroundColor=none;fontSize=9;" vertex="1" parent="1">
          <mxGeometry x="305" y="260" width="40" height="20" as="geometry" />
        </mxCell>
        <mxCell id="YMQGmcqetLwAoUpaAqa0-97" value="D1" style="text;html=1;strokeColor=none;fillColor=none;align=center;verticalAlign=middle;whiteSpace=wrap;rounded=0;labelBackgroundColor=none;fontSize=9;" vertex="1" parent="1">
          <mxGeometry x="305" y="280" width="40" height="20" as="geometry" />
        </mxCell>
        <mxCell id="YMQGmcqetLwAoUpaAqa0-98" value="A2" style="text;html=1;strokeColor=none;fillColor=none;align=center;verticalAlign=middle;whiteSpace=wrap;rounded=0;labelBackgroundColor=none;fontSize=9;" vertex="1" parent="1">
          <mxGeometry x="305" y="300" width="40" height="20" as="geometry" />
        </mxCell>
        <mxCell id="YMQGmcqetLwAoUpaAqa0-99" value="B2" style="text;html=1;strokeColor=none;fillColor=none;align=center;verticalAlign=middle;whiteSpace=wrap;rounded=0;labelBackgroundColor=none;fontSize=9;" vertex="1" parent="1">
          <mxGeometry x="305" y="320" width="40" height="20" as="geometry" />
        </mxCell>
        <mxCell id="YMQGmcqetLwAoUpaAqa0-100" value="C2" style="text;html=1;strokeColor=none;fillColor=none;align=center;verticalAlign=middle;whiteSpace=wrap;rounded=0;labelBackgroundColor=none;fontSize=9;" vertex="1" parent="1">
          <mxGeometry x="305" y="340" width="40" height="20" as="geometry" />
        </mxCell>
        <mxCell id="YMQGmcqetLwAoUpaAqa0-101" value="D2" style="text;html=1;strokeColor=none;fillColor=none;align=center;verticalAlign=middle;whiteSpace=wrap;rounded=0;labelBackgroundColor=none;fontSize=9;" vertex="1" parent="1">
          <mxGeometry x="305" y="360" width="40" height="20" as="geometry" />
        </mxCell>
        <mxCell id="YMQGmcqetLwAoUpaAqa0-135" style="edgeStyle=orthogonalEdgeStyle;rounded=0;orthogonalLoop=1;jettySize=auto;html=1;exitX=1;exitY=0.5;exitDx=0;exitDy=0;entryX=0.743;entryY=0.999;entryDx=0;entryDy=0;entryPerimeter=0;fontSize=9;" edge="1" parent="1" source="YMQGmcqetLwAoUpaAqa0-102" target="YMQGmcqetLwAoUpaAqa0-36">
          <mxGeometry relative="1" as="geometry">
            <Array as="points">
              <mxPoint x="345" y="580" />
              <mxPoint x="540" y="580" />
              <mxPoint x="540" y="584" />
            </Array>
          </mxGeometry>
        </mxCell>
        <mxCell id="YMQGmcqetLwAoUpaAqa0-102" value="VCC" style="text;html=1;strokeColor=none;fillColor=none;align=center;verticalAlign=middle;whiteSpace=wrap;rounded=0;labelBackgroundColor=none;fontSize=9;" vertex="1" parent="1">
          <mxGeometry x="305" y="380" width="40" height="20" as="geometry" />
        </mxCell>
        <mxCell id="YMQGmcqetLwAoUpaAqa0-103" value="Applied Motion 5017-013 hybrid stepper motor" style="rounded=0;whiteSpace=wrap;html=1;labelBackgroundColor=none;fontSize=11;" vertex="1" parent="1">
          <mxGeometry x="500" y="155" width="240" height="60" as="geometry" />
        </mxCell>
        <mxCell id="YMQGmcqetLwAoUpaAqa0-112" style="edgeStyle=orthogonalEdgeStyle;rounded=0;orthogonalLoop=1;jettySize=auto;html=1;exitX=0.5;exitY=1;exitDx=0;exitDy=0;entryX=0.938;entryY=1.018;entryDx=0;entryDy=0;entryPerimeter=0;fontSize=9;" edge="1" parent="1" source="YMQGmcqetLwAoUpaAqa0-104" target="YMQGmcqetLwAoUpaAqa0-36">
          <mxGeometry relative="1" as="geometry">
            <Array as="points">
              <mxPoint x="532" y="240" />
              <mxPoint x="532" y="345" />
              <mxPoint x="550" y="345" />
              <mxPoint x="550" y="463" />
            </Array>
          </mxGeometry>
        </mxCell>
        <mxCell id="YMQGmcqetLwAoUpaAqa0-104" value="white" style="text;html=1;strokeColor=none;fillColor=none;align=center;verticalAlign=middle;whiteSpace=wrap;rounded=0;labelBackgroundColor=none;fontSize=9;" vertex="1" parent="1">
          <mxGeometry x="490" y="220" width="40" height="20" as="geometry" />
        </mxCell>
        <mxCell id="YMQGmcqetLwAoUpaAqa0-120" style="edgeStyle=orthogonalEdgeStyle;rounded=0;orthogonalLoop=1;jettySize=auto;html=1;exitX=0.5;exitY=1;exitDx=0;exitDy=0;entryX=0.118;entryY=-0.021;entryDx=0;entryDy=0;entryPerimeter=0;fontSize=9;" edge="1" parent="1" source="YMQGmcqetLwAoUpaAqa0-105" target="YMQGmcqetLwAoUpaAqa0-119">
          <mxGeometry relative="1" as="geometry">
            <Array as="points">
              <mxPoint x="550" y="260" />
              <mxPoint x="570" y="260" />
              <mxPoint x="570" y="484" />
            </Array>
          </mxGeometry>
        </mxCell>
        <mxCell id="YMQGmcqetLwAoUpaAqa0-105" value="green" style="text;html=1;strokeColor=none;fillColor=none;align=center;verticalAlign=middle;whiteSpace=wrap;rounded=0;labelBackgroundColor=none;fontSize=9;" vertex="1" parent="1">
          <mxGeometry x="530" y="220" width="40" height="20" as="geometry" />
        </mxCell>
        <mxCell id="YMQGmcqetLwAoUpaAqa0-121" style="edgeStyle=orthogonalEdgeStyle;rounded=0;orthogonalLoop=1;jettySize=auto;html=1;exitX=0.5;exitY=1;exitDx=0;exitDy=0;entryX=0.309;entryY=0.027;entryDx=0;entryDy=0;entryPerimeter=0;fontSize=9;" edge="1" parent="1" source="YMQGmcqetLwAoUpaAqa0-107" target="YMQGmcqetLwAoUpaAqa0-119">
          <mxGeometry relative="1" as="geometry">
            <Array as="points">
              <mxPoint x="590" y="500" />
            </Array>
          </mxGeometry>
        </mxCell>
        <mxCell id="YMQGmcqetLwAoUpaAqa0-107" value="white/red" style="text;html=1;strokeColor=none;fillColor=none;align=center;verticalAlign=middle;whiteSpace=wrap;rounded=0;labelBackgroundColor=none;fontSize=9;" vertex="1" parent="1">
          <mxGeometry x="570" y="220" width="40" height="20" as="geometry" />
        </mxCell>
        <mxCell id="YMQGmcqetLwAoUpaAqa0-113" style="edgeStyle=orthogonalEdgeStyle;rounded=0;orthogonalLoop=1;jettySize=auto;html=1;exitX=0.5;exitY=1;exitDx=0;exitDy=0;fontSize=9;" edge="1" parent="1" source="YMQGmcqetLwAoUpaAqa0-108">
          <mxGeometry relative="1" as="geometry">
            <mxPoint x="531" y="490" as="targetPoint" />
            <Array as="points">
              <mxPoint x="630" y="490" />
              <mxPoint x="531" y="490" />
            </Array>
          </mxGeometry>
        </mxCell>
        <mxCell id="YMQGmcqetLwAoUpaAqa0-108" value="black" style="text;html=1;strokeColor=none;fillColor=none;align=center;verticalAlign=middle;whiteSpace=wrap;rounded=0;labelBackgroundColor=none;fontSize=9;" vertex="1" parent="1">
          <mxGeometry x="610" y="220" width="40" height="20" as="geometry" />
        </mxCell>
        <mxCell id="YMQGmcqetLwAoUpaAqa0-122" style="edgeStyle=orthogonalEdgeStyle;rounded=0;orthogonalLoop=1;jettySize=auto;html=1;exitX=0.5;exitY=1;exitDx=0;exitDy=0;entryX=0.5;entryY=0;entryDx=0;entryDy=0;fontSize=9;" edge="1" parent="1" source="YMQGmcqetLwAoUpaAqa0-109" target="YMQGmcqetLwAoUpaAqa0-119">
          <mxGeometry relative="1" as="geometry" />
        </mxCell>
        <mxCell id="YMQGmcqetLwAoUpaAqa0-109" value="white/green" style="text;html=1;strokeColor=none;fillColor=none;align=center;verticalAlign=middle;whiteSpace=wrap;rounded=0;labelBackgroundColor=none;fontSize=9;" vertex="1" parent="1">
          <mxGeometry x="650" y="220" width="40" height="20" as="geometry" />
        </mxCell>
        <mxCell id="YMQGmcqetLwAoUpaAqa0-123" style="edgeStyle=orthogonalEdgeStyle;rounded=0;orthogonalLoop=1;jettySize=auto;html=1;exitX=0.5;exitY=1;exitDx=0;exitDy=0;entryX=0.75;entryY=0;entryDx=0;entryDy=0;fontSize=9;" edge="1" parent="1" source="YMQGmcqetLwAoUpaAqa0-111" target="YMQGmcqetLwAoUpaAqa0-119">
          <mxGeometry relative="1" as="geometry" />
        </mxCell>
        <mxCell id="YMQGmcqetLwAoUpaAqa0-111" value="red" style="text;html=1;strokeColor=none;fillColor=none;align=center;verticalAlign=middle;whiteSpace=wrap;rounded=0;labelBackgroundColor=none;fontSize=9;" vertex="1" parent="1">
          <mxGeometry x="700" y="220" width="40" height="20" as="geometry" />
        </mxCell>
        <mxCell id="YMQGmcqetLwAoUpaAqa0-114" value="+" style="text;html=1;strokeColor=none;fillColor=none;align=center;verticalAlign=middle;whiteSpace=wrap;rounded=0;labelBackgroundColor=none;fontSize=9;rotation=-90;" vertex="1" parent="1">
          <mxGeometry x="620" y="430" width="40" height="10" as="geometry" />
        </mxCell>
        <mxCell id="YMQGmcqetLwAoUpaAqa0-115" value="+" style="text;html=1;strokeColor=none;fillColor=none;align=center;verticalAlign=middle;whiteSpace=wrap;rounded=0;labelBackgroundColor=none;fontSize=9;rotation=-90;" vertex="1" parent="1">
          <mxGeometry x="520" y="400" width="40" height="20" as="geometry" />
        </mxCell>
        <mxCell id="YMQGmcqetLwAoUpaAqa0-119" value="" style="rounded=0;whiteSpace=wrap;html=1;labelBackgroundColor=none;fontSize=9;rotation=90;strokeColor=none;" vertex="1" parent="1">
          <mxGeometry x="450" y="510" width="80" height="10" as="geometry" />
        </mxCell>
        <mxCell id="YMQGmcqetLwAoUpaAqa0-124" value="" style="endArrow=classic;html=1;fontSize=9;exitX=0.118;exitY=0.867;exitDx=0;exitDy=0;exitPerimeter=0;entryX=1;entryY=0.5;entryDx=0;entryDy=0;" edge="1" parent="1" source="YMQGmcqetLwAoUpaAqa0-119" target="YMQGmcqetLwAoUpaAqa0-94">
          <mxGeometry width="50" height="50" relative="1" as="geometry">
            <mxPoint x="410" y="420" as="sourcePoint" />
            <mxPoint x="420" y="370" as="targetPoint" />
            <Array as="points">
              <mxPoint x="470" y="484" />
              <mxPoint x="470" y="230" />
            </Array>
          </mxGeometry>
        </mxCell>
        <mxCell id="YMQGmcqetLwAoUpaAqa0-126" value="" style="endArrow=classic;html=1;fontSize=9;exitX=0.113;exitY=0;exitDx=0;exitDy=0;exitPerimeter=0;" edge="1" parent="1" source="YMQGmcqetLwAoUpaAqa0-119" target="YMQGmcqetLwAoUpaAqa0-95">
          <mxGeometry width="50" height="50" relative="1" as="geometry">
            <mxPoint x="496.3299999999999" y="494.44000000000005" as="sourcePoint" />
            <mxPoint x="355.0000000000001" y="240" as="targetPoint" />
            <Array as="points">
              <mxPoint x="460" y="480" />
              <mxPoint x="460" y="249" />
            </Array>
          </mxGeometry>
        </mxCell>
        <mxCell id="YMQGmcqetLwAoUpaAqa0-127" value="" style="endArrow=classic;html=1;fontSize=9;exitX=0.304;exitY=0.971;exitDx=0;exitDy=0;exitPerimeter=0;entryX=1;entryY=0.5;entryDx=0;entryDy=0;" edge="1" parent="1" source="YMQGmcqetLwAoUpaAqa0-119" target="YMQGmcqetLwAoUpaAqa0-96">
          <mxGeometry width="50" height="50" relative="1" as="geometry">
            <mxPoint x="290" y="410" as="sourcePoint" />
            <mxPoint x="340" y="360" as="targetPoint" />
            <Array as="points">
              <mxPoint x="450" y="499" />
              <mxPoint x="450" y="270" />
            </Array>
          </mxGeometry>
        </mxCell>
        <mxCell id="YMQGmcqetLwAoUpaAqa0-128" value="" style="endArrow=classic;html=1;fontSize=9;exitX=0.31;exitY=-0.028;exitDx=0;exitDy=0;exitPerimeter=0;entryX=1;entryY=0.5;entryDx=0;entryDy=0;" edge="1" parent="1" source="YMQGmcqetLwAoUpaAqa0-119" target="YMQGmcqetLwAoUpaAqa0-97">
          <mxGeometry width="50" height="50" relative="1" as="geometry">
            <mxPoint x="495.28999999999996" y="509.32000000000005" as="sourcePoint" />
            <mxPoint x="355.0000000000001" y="280" as="targetPoint" />
            <Array as="points">
              <mxPoint x="440" y="500" />
              <mxPoint x="440" y="290" />
            </Array>
          </mxGeometry>
        </mxCell>
        <mxCell id="YMQGmcqetLwAoUpaAqa0-129" value="" style="endArrow=classic;html=1;fontSize=9;exitX=0.5;exitY=0;exitDx=0;exitDy=0;entryX=1;entryY=0.5;entryDx=0;entryDy=0;" edge="1" parent="1" source="YMQGmcqetLwAoUpaAqa0-119" target="YMQGmcqetLwAoUpaAqa0-98">
          <mxGeometry width="50" height="50" relative="1" as="geometry">
            <mxPoint x="505.28999999999996" y="519.32" as="sourcePoint" />
            <mxPoint x="365.0000000000001" y="290" as="targetPoint" />
            <Array as="points">
              <mxPoint x="430" y="510" />
              <mxPoint x="430" y="310" />
            </Array>
          </mxGeometry>
        </mxCell>
        <mxCell id="YMQGmcqetLwAoUpaAqa0-131" value="" style="endArrow=classic;html=1;fontSize=9;exitX=0.5;exitY=0;exitDx=0;exitDy=0;entryX=1;entryY=0.5;entryDx=0;entryDy=0;" edge="1" parent="1" source="YMQGmcqetLwAoUpaAqa0-119" target="YMQGmcqetLwAoUpaAqa0-99">
          <mxGeometry width="50" height="50" relative="1" as="geometry">
            <mxPoint x="515.29" y="529.32" as="sourcePoint" />
            <mxPoint x="375.0000000000001" y="300" as="targetPoint" />
            <Array as="points">
              <mxPoint x="420" y="515" />
              <mxPoint x="420" y="330" />
            </Array>
          </mxGeometry>
        </mxCell>
        <mxCell id="YMQGmcqetLwAoUpaAqa0-132" value="" style="endArrow=classic;html=1;fontSize=9;exitX=0.75;exitY=0;exitDx=0;exitDy=0;entryX=1;entryY=0.5;entryDx=0;entryDy=0;" edge="1" parent="1" source="YMQGmcqetLwAoUpaAqa0-119" target="YMQGmcqetLwAoUpaAqa0-100">
          <mxGeometry width="50" height="50" relative="1" as="geometry">
            <mxPoint x="525.29" y="539.32" as="sourcePoint" />
            <mxPoint x="385.0000000000001" y="310" as="targetPoint" />
            <Array as="points">
              <mxPoint x="410" y="539" />
              <mxPoint x="410" y="350" />
            </Array>
          </mxGeometry>
        </mxCell>
        <mxCell id="YMQGmcqetLwAoUpaAqa0-134" value="" style="endArrow=classic;html=1;fontSize=9;exitX=0.75;exitY=0;exitDx=0;exitDy=0;entryX=1;entryY=0.5;entryDx=0;entryDy=0;" edge="1" parent="1" source="YMQGmcqetLwAoUpaAqa0-119" target="YMQGmcqetLwAoUpaAqa0-101">
          <mxGeometry width="50" height="50" relative="1" as="geometry">
            <mxPoint x="535.29" y="549.32" as="sourcePoint" />
            <mxPoint x="395.0000000000001" y="320" as="targetPoint" />
            <Array as="points">
              <mxPoint x="395" y="550" />
              <mxPoint x="400" y="370" />
            </Array>
          </mxGeometry>
        </mxCell>
        <mxCell id="YMQGmcqetLwAoUpaAqa0-136" value="+" style="text;html=1;strokeColor=none;fillColor=none;align=center;verticalAlign=middle;whiteSpace=wrap;rounded=0;labelBackgroundColor=none;fontSize=9;" vertex="1" parent="1">
          <mxGeometry x="540" y="570" width="40" height="20" as="geometry" />
        </mxCell>
        <mxCell id="YMQGmcqetLwAoUpaAqa0-137" value="" style="rounded=0;whiteSpace=wrap;html=1;labelBackgroundColor=none;fontSize=9;rotation=-90;strokeColor=none;" vertex="1" parent="1">
          <mxGeometry x="420" y="625" width="90" height="20" as="geometry" />
        </mxCell>
        <mxCell id="YMQGmcqetLwAoUpaAqa0-148" value="-" style="text;html=1;strokeColor=none;fillColor=none;align=center;verticalAlign=middle;whiteSpace=wrap;rounded=0;labelBackgroundColor=none;fontSize=13;" vertex="1" parent="1">
          <mxGeometry x="160" y="720" width="40" height="20" as="geometry" />
        </mxCell>
        <mxCell id="YMQGmcqetLwAoUpaAqa0-153" value="" style="endArrow=classic;html=1;fontSize=13;exitX=0.857;exitY=0;exitDx=0;exitDy=0;exitPerimeter=0;entryX=1;entryY=0.5;entryDx=0;entryDy=0;" edge="1" parent="1" source="YMQGmcqetLwAoUpaAqa0-137" target="YMQGmcqetLwAoUpaAqa0-3">
          <mxGeometry width="50" height="50" relative="1" as="geometry">
            <mxPoint x="280" y="810" as="sourcePoint" />
            <mxPoint x="330" y="760" as="targetPoint" />
            <Array as="points">
              <mxPoint x="560" y="603" />
              <mxPoint x="560" y="920" />
            </Array>
          </mxGeometry>
        </mxCell>
        <mxCell id="YMQGmcqetLwAoUpaAqa0-154" value="" style="endArrow=classic;html=1;fontSize=13;exitX=0.561;exitY=-0.042;exitDx=0;exitDy=0;exitPerimeter=0;entryX=1;entryY=0.5;entryDx=0;entryDy=0;" edge="1" parent="1" source="YMQGmcqetLwAoUpaAqa0-137" target="YMQGmcqetLwAoUpaAqa0-4">
          <mxGeometry width="50" height="50" relative="1" as="geometry">
            <mxPoint x="280" y="810" as="sourcePoint" />
            <mxPoint x="330" y="760" as="targetPoint" />
            <Array as="points">
              <mxPoint x="590" y="630" />
              <mxPoint x="590" y="950" />
            </Array>
          </mxGeometry>
        </mxCell>
        <mxCell id="YMQGmcqetLwAoUpaAqa0-155" value="" style="endArrow=classic;html=1;fontSize=13;exitX=0.25;exitY=0;exitDx=0;exitDy=0;entryX=1;entryY=0.5;entryDx=0;entryDy=0;" edge="1" parent="1" source="YMQGmcqetLwAoUpaAqa0-137" target="YMQGmcqetLwAoUpaAqa0-5">
          <mxGeometry width="50" height="50" relative="1" as="geometry">
            <mxPoint x="280" y="810" as="sourcePoint" />
            <mxPoint x="330" y="760" as="targetPoint" />
            <Array as="points">
              <mxPoint x="620" y="658" />
              <mxPoint x="620" y="960" />
            </Array>
          </mxGeometry>
        </mxCell>
        <mxCell id="YMQGmcqetLwAoUpaAqa0-156" value="" style="endArrow=classic;html=1;fontSize=13;exitX=0.061;exitY=0.042;exitDx=0;exitDy=0;exitPerimeter=0;entryX=1;entryY=0.5;entryDx=0;entryDy=0;" edge="1" parent="1" source="YMQGmcqetLwAoUpaAqa0-137" target="YMQGmcqetLwAoUpaAqa0-6">
          <mxGeometry width="50" height="50" relative="1" as="geometry">
            <mxPoint x="280" y="810" as="sourcePoint" />
            <mxPoint x="330" y="760" as="targetPoint" />
            <Array as="points">
              <mxPoint x="660" y="675" />
              <mxPoint x="660" y="990" />
            </Array>
          </mxGeometry>
        </mxCell>
      </root>
    </mxGraphModel>
  </diagram>
</mxfile>
